# xmcd
#
# Track frame offsets:
#	182
#	14645
#	35845
#	55770
#	73945
#	88545
#	108895
#	124345
#	143295
#	156570
#	173645
#	189320
#	209445
#	223320
#	241220
#	257620
#
# Disc length: 3638 seconds
# Revision: 5
# Processed by: cddbd v1.5.2PL0 Copyright (c) Steve Scherf et al.
# Submitted via: dBpowerAMP V12.0
#
DISCID=ea0e3410
DTITLE=Billie Holiday - Billie's Best 1945 - 1959 [dBP-LITE02-1-FLAC@]
DYEAR=1992
DGENRE=Jazz
TTITLE0=What a Little Moonlight Can Do
TTITLE1=A Foggy Day
TTITLE2=Come Rain or Come Shine
TTITLE3=Comes Love
TTITLE4=He's Funny That Way
TTITLE5=Stars Fell on Alabama
TTITLE6=Gone with the Wind
TTITLE7=They Can't Take That Away from Me
TTITLE8=East of the Sun
TTITLE9=Everything I Have is Yours
TTITLE10=Stormy Blues
TTITLE11=Speak Low
TTITLE12=April in Paris
TTITLE13=I've Got My Love to Keep Me Warm
TTITLE14=Some Other Spring
TTITLE15=All the Way
EXTD=
EXTT0=
EXTT1=
EXTT2=
EXTT3=
EXTT4=
EXTT5=
EXTT6=
EXTT7=
EXTT8=
EXTT9=
EXTT10=
EXTT11=
EXTT12=
EXTT13=
EXTT14=
EXTT15=
PLAYORDER=
